<svg width="207.000000" height="35.000000" viewBox="0 0 207 35" fill="none" xmlns="http://www.w3.org/2000/svg" xmlns:xlink="http://www.w3.org/1999/xlink">
	<desc>
			Created with Pixso.
	</desc>
	<defs/>
	<path id="Vector" d="M0 7.85C0 5.72 1.75 4 3.92 4L23.51 4C25.68 4 27.44 5.72 27.44 7.85L27.44 27.14C27.44 29.27 25.68 31 23.51 31L3.92 31C1.75 31 0 29.27 0 27.14L0 7.85Z" fill="#454545" fill-opacity="1.000000" fill-rule="nonzero"/>
	<path id="Vector" d="M13.71 13.98C13.49 13.98 13.28 13.89 13.12 13.74C12.96 13.58 12.87 13.37 12.87 13.15L12.87 9.84C12.87 9.62 12.96 9.41 13.12 9.25C13.28 9.1 13.49 9.01 13.71 9.01C13.94 9.01 14.15 9.1 14.31 9.25C14.47 9.41 14.56 9.62 14.56 9.84L14.56 13.15C14.56 13.37 14.47 13.58 14.31 13.74C14.15 13.89 13.94 13.98 13.71 13.98ZM13.71 25.98C13.49 25.98 13.28 25.89 13.12 25.74C12.96 25.58 12.87 25.37 12.87 25.15L12.87 21.84C12.87 21.62 12.96 21.41 13.12 21.25C13.28 21.1 13.49 21.01 13.71 21.01C13.94 21.01 14.15 21.1 14.31 21.25C14.47 21.41 14.56 21.62 14.56 21.84L14.56 25.15C14.56 25.37 14.47 25.58 14.31 25.74C14.15 25.89 13.94 25.98 13.71 25.98ZM9.3 18.32L5.93 18.32C5.71 18.32 5.5 18.24 5.34 18.08C5.18 17.93 5.09 17.71 5.09 17.5C5.09 17.28 5.18 17.06 5.34 16.91C5.5 16.75 5.71 16.67 5.93 16.67L9.3 16.67C9.53 16.67 9.74 16.75 9.9 16.91C10.06 17.06 10.14 17.28 10.14 17.5C10.14 17.71 10.06 17.93 9.9 18.08C9.74 18.24 9.53 18.32 9.3 18.32ZM21.5 18.32L18.13 18.32C17.91 18.32 17.69 18.24 17.53 18.08C17.37 17.93 17.29 17.71 17.29 17.5C17.29 17.28 17.37 17.06 17.53 16.91C17.69 16.75 17.91 16.67 18.13 16.67L21.5 16.67C21.72 16.67 21.94 16.75 22.09 16.91C22.25 17.06 22.34 17.28 22.34 17.5C22.34 17.71 22.25 17.93 22.09 18.08C21.94 18.24 21.72 18.32 21.5 18.32ZM16.83 15.25C16.67 15.25 16.51 15.2 16.37 15.11C16.23 15.02 16.12 14.89 16.06 14.74C16 14.59 15.98 14.42 16.01 14.26C16.05 14.1 16.12 13.95 16.24 13.84L18.62 11.5C18.7 11.41 18.79 11.35 18.9 11.31C19 11.26 19.11 11.24 19.22 11.24C19.33 11.23 19.45 11.25 19.55 11.3C19.66 11.34 19.75 11.4 19.83 11.48C19.91 11.56 19.98 11.65 20.01 11.75C20.06 11.86 20.08 11.96 20.08 12.08C20.08 12.19 20.05 12.3 20.01 12.4C19.96 12.5 19.89 12.59 19.81 12.67L17.43 15.01C17.35 15.09 17.26 15.15 17.16 15.19C17.06 15.23 16.95 15.25 16.83 15.25ZM8.21 23.74C8.05 23.74 7.88 23.69 7.75 23.6C7.61 23.51 7.5 23.38 7.44 23.23C7.37 23.08 7.35 22.91 7.39 22.75C7.42 22.59 7.5 22.44 7.62 22.32L10 19.98C10.08 19.9 10.17 19.84 10.27 19.8C10.37 19.76 10.48 19.74 10.6 19.74C10.71 19.74 10.82 19.76 10.92 19.8C11.02 19.84 11.11 19.9 11.19 19.98C11.27 20.06 11.33 20.15 11.37 20.25C11.42 20.35 11.44 20.46 11.44 20.57C11.44 20.68 11.42 20.78 11.37 20.88C11.33 20.99 11.27 21.08 11.19 21.15L8.81 23.5C8.73 23.57 8.64 23.63 8.53 23.67C8.43 23.72 8.32 23.74 8.21 23.74ZM10.6 15.25C10.48 15.25 10.37 15.23 10.27 15.19C10.17 15.15 10.08 15.09 10 15.01L7.62 12.67C7.53 12.59 7.47 12.5 7.42 12.4C7.38 12.3 7.35 12.19 7.35 12.08C7.35 11.96 7.37 11.86 7.42 11.75C7.46 11.65 7.52 11.56 7.6 11.48C7.68 11.4 7.78 11.34 7.88 11.3C7.98 11.25 8.1 11.23 8.21 11.24C8.32 11.24 8.43 11.26 8.53 11.31C8.64 11.35 8.73 11.41 8.81 11.5L11.19 13.84C11.31 13.96 11.39 14.1 11.42 14.26C11.45 14.42 11.44 14.59 11.37 14.74C11.31 14.89 11.2 15.02 11.06 15.11C10.92 15.21 10.76 15.25 10.6 15.25ZM19.22 23.74C19.11 23.74 19 23.72 18.9 23.67C18.79 23.63 18.7 23.57 18.62 23.5L16.24 21.15C16.1 20.99 16.02 20.79 16.03 20.58C16.03 20.36 16.12 20.16 16.27 20.01C16.42 19.86 16.63 19.77 16.85 19.77C17.06 19.76 17.27 19.84 17.43 19.98L19.81 22.32C19.93 22.44 20.01 22.59 20.05 22.75C20.08 22.91 20.06 23.08 20 23.23C19.93 23.38 19.82 23.51 19.69 23.6C19.55 23.69 19.39 23.74 19.22 23.74Z" fill="#FFFFFF" fill-opacity="1.000000" fill-rule="evenodd"/>
	<path id="CodeCult" d="M69.87 6.61C75.26 6.61 79.18 10.78 79.18 17.45C79.18 24.12 75.26 28.29 69.87 28.29C64.47 28.29 60.55 24.12 60.55 17.45C60.55 10.78 64.47 6.61 69.87 6.61ZM164.86 13.5L162.22 13.5C161.33 10.73 159.25 9.01 156.21 9.01C152.46 9.01 149.45 11.97 149.45 17.45C149.45 22.93 152.46 25.89 156.37 25.89C159.95 25.89 162.44 23.51 162.51 19.72L156.95 19.72L156.95 17.45L164.98 17.45L164.98 19.72C164.98 24.94 161.4 28.29 156.37 28.29C150.77 28.29 146.98 24.12 146.98 17.45C146.98 10.78 150.8 6.61 156.21 6.61C160.66 6.61 164.08 9.42 164.86 13.5ZM53.76 6.9L56.27 6.9L56.27 28L53.8 28L42.31 11.43L42.1 11.43L42.1 28L39.55 28L39.55 6.9L42.02 6.9L53.56 23.51L53.76 23.51L53.76 6.9ZM86.01 28L83.46 28L83.46 6.9L90.59 6.9C95.53 6.9 97.76 9.64 97.76 13.37C97.76 16.17 96.5 18.37 93.81 19.28L98.58 28L95.61 28L91.17 19.75C90.99 19.75 90.81 19.75 90.63 19.75L86.01 19.75L86.01 28ZM116.21 6.9L118.72 6.9L118.72 28L116.25 28L104.76 11.43L104.55 11.43L104.55 28L102 28L102 6.9L104.47 6.9L116 23.51L116.21 23.51L116.21 6.9ZM136.19 28L123.83 28L123.83 6.9L126.38 6.9L126.38 25.73L136.19 25.73L136.19 28ZM140.14 6.9L142.69 6.9L142.69 28L140.14 28L140.14 6.9ZM171.9 28L169.35 28L169.35 6.9L171.9 6.9L171.9 16.3L183.15 16.3L183.15 6.9L185.71 6.9L185.71 28L183.15 28L183.15 18.56L171.9 18.56L171.9 28ZM196.29 9.17L189.66 9.17L189.66 6.9L205.48 6.9L205.48 9.17L198.84 9.17L198.84 28L196.29 28L196.29 9.17ZM69.87 25.89C73.7 25.89 76.7 22.93 76.7 17.45C76.7 11.97 73.7 9.01 69.87 9.01C66.03 9.01 63.03 11.97 63.03 17.45C63.03 22.93 66.03 25.89 69.87 25.89ZM86.01 9.17L86.01 17.45L90.54 17.45C93.93 17.45 95.24 15.9 95.24 13.37C95.24 10.84 93.93 9.17 90.51 9.17L86.01 9.17Z" fill="#454545" fill-opacity="1.000000" fill-rule="evenodd"/>
</svg>
