<svg width="28.000000" height="27.000000" viewBox="0 0 28 27" fill="none" xmlns="http://www.w3.org/2000/svg" xmlns:xlink="http://www.w3.org/1999/xlink">
	<desc>
			Created with Pixso.
	</desc>
	<defs/>
	<path id="Vector" d="M0 3.85C0 1.72 1.75 0 3.92 0L23.51 0C25.68 0 27.44 1.72 27.44 3.85L27.44 23.14C27.44 25.27 25.68 27 23.51 27L3.92 27C1.75 27 0 25.27 0 23.14L0 3.85Z" fill="#454545" fill-opacity="1.000000" fill-rule="nonzero"/>
	<path id="Vector" d="M13.71 9.98C13.49 9.98 13.28 9.89 13.12 9.74C12.96 9.58 12.87 9.37 12.87 9.15L12.87 5.84C12.87 5.62 12.96 5.41 13.12 5.25C13.28 5.1 13.49 5.01 13.71 5.01C13.94 5.01 14.15 5.1 14.31 5.25C14.47 5.41 14.56 5.62 14.56 5.84L14.56 9.15C14.56 9.37 14.47 9.58 14.31 9.74C14.15 9.89 13.94 9.98 13.71 9.98ZM13.71 21.98C13.49 21.98 13.28 21.89 13.12 21.74C12.96 21.58 12.87 21.37 12.87 21.15L12.87 17.84C12.87 17.62 12.96 17.41 13.12 17.25C13.28 17.1 13.49 17.01 13.71 17.01C13.94 17.01 14.15 17.1 14.31 17.25C14.47 17.41 14.56 17.62 14.56 17.84L14.56 21.15C14.56 21.37 14.47 21.58 14.31 21.74C14.15 21.89 13.94 21.98 13.71 21.98ZM9.3 14.32L5.93 14.32C5.71 14.32 5.5 14.24 5.34 14.08C5.18 13.93 5.09 13.71 5.09 13.5C5.09 13.28 5.18 13.06 5.34 12.91C5.5 12.75 5.71 12.67 5.93 12.67L9.3 12.67C9.53 12.67 9.74 12.75 9.9 12.91C10.06 13.06 10.14 13.28 10.14 13.5C10.14 13.71 10.06 13.93 9.9 14.08C9.74 14.24 9.53 14.32 9.3 14.32ZM21.5 14.32L18.13 14.32C17.91 14.32 17.69 14.24 17.53 14.08C17.37 13.93 17.29 13.71 17.29 13.5C17.29 13.28 17.37 13.06 17.53 12.91C17.69 12.75 17.91 12.67 18.13 12.67L21.5 12.67C21.72 12.67 21.94 12.75 22.09 12.91C22.25 13.06 22.34 13.28 22.34 13.5C22.34 13.71 22.25 13.93 22.09 14.08C21.94 14.24 21.72 14.32 21.5 14.32ZM16.83 11.25C16.67 11.25 16.51 11.2 16.37 11.11C16.23 11.02 16.12 10.89 16.06 10.74C16 10.59 15.98 10.42 16.01 10.26C16.05 10.1 16.12 9.95 16.24 9.84L18.62 7.5C18.7 7.41 18.79 7.35 18.9 7.31C19 7.26 19.11 7.24 19.22 7.24C19.33 7.23 19.45 7.25 19.55 7.3C19.66 7.34 19.75 7.4 19.83 7.48C19.91 7.56 19.98 7.65 20.01 7.75C20.06 7.86 20.08 7.96 20.08 8.08C20.08 8.19 20.05 8.3 20.01 8.4C19.96 8.5 19.89 8.59 19.81 8.67L17.43 11.01C17.35 11.09 17.26 11.15 17.16 11.19C17.06 11.23 16.95 11.25 16.83 11.25ZM8.21 19.74C8.05 19.74 7.88 19.69 7.75 19.6C7.61 19.51 7.5 19.38 7.44 19.23C7.37 19.08 7.35 18.91 7.39 18.75C7.42 18.59 7.5 18.44 7.62 18.32L10 15.98C10.08 15.9 10.17 15.84 10.27 15.8C10.37 15.76 10.48 15.74 10.6 15.74C10.71 15.74 10.82 15.76 10.92 15.8C11.02 15.84 11.11 15.9 11.19 15.98C11.27 16.06 11.33 16.15 11.37 16.25C11.42 16.35 11.44 16.46 11.44 16.57C11.44 16.68 11.42 16.78 11.37 16.88C11.33 16.99 11.27 17.08 11.19 17.15L8.81 19.5C8.73 19.57 8.64 19.63 8.53 19.67C8.43 19.72 8.32 19.74 8.21 19.74ZM10.6 11.25C10.48 11.25 10.37 11.23 10.27 11.19C10.17 11.15 10.08 11.09 10 11.01L7.62 8.67C7.53 8.59 7.47 8.5 7.42 8.4C7.38 8.3 7.35 8.19 7.35 8.08C7.35 7.96 7.37 7.86 7.42 7.75C7.46 7.65 7.52 7.56 7.6 7.48C7.68 7.4 7.78 7.34 7.88 7.3C7.98 7.25 8.1 7.23 8.21 7.24C8.32 7.24 8.43 7.26 8.53 7.31C8.64 7.35 8.73 7.41 8.81 7.5L11.19 9.84C11.31 9.95 11.39 10.1 11.42 10.26C11.45 10.42 11.44 10.59 11.37 10.74C11.31 10.89 11.2 11.02 11.06 11.11C10.92 11.21 10.76 11.25 10.6 11.25ZM19.22 19.74C19.11 19.74 19 19.72 18.9 19.67C18.79 19.63 18.7 19.57 18.62 19.5L16.24 17.15C16.1 16.99 16.02 16.79 16.03 16.58C16.03 16.36 16.12 16.16 16.27 16.01C16.42 15.86 16.63 15.77 16.85 15.77C17.06 15.76 17.27 15.84 17.43 15.98L19.81 18.32C19.93 18.44 20.01 18.59 20.05 18.75C20.08 18.91 20.06 19.08 20 19.23C19.93 19.38 19.82 19.51 19.69 19.6C19.55 19.69 19.39 19.74 19.22 19.74Z" fill="#FFFFFF" fill-opacity="1.000000" fill-rule="evenodd"/>
</svg>
